<svg id="Layer_3" enable-background="new 0 0 64 64" height="25" viewBox="0 0 64 64" width="25" xmlns="http://www.w3.org/2000/svg"><g><g><path d="m53 51.998c-2.757 0-5-2.242-5-4.998v-15.001h2v15.001c0 1.653 1.346 2.998 3 2.998s3-1.345 3-2.998v-33.001h2v33.001c-.001 2.756-2.244 4.998-5 4.998z" fill="#d5cec2"/></g><path d="m57 15c-2.761 0-5-2.239-5-5v-5h10v5c0 2.761-2.239 5-5 5z" fill="#f5ba5b"/><path d="m59.383 5h-7.383v5c0 1.352.542 2.573 1.413 3.473 3.111-1.742 5.358-4.828 5.97-8.473z" fill="#f8cf6a"/><path d="m5 20h40v35h-40z" fill="#b4e05d"/><path d="m5 45.944c14.263-.837 25.777-11.887 27.336-25.944h-27.336z" fill="#c8ec6c"/><circle cx="24.679" cy="37" fill="#ecfa97" r="13"/><path d="m31.113 25.714c-1.898-1.085-4.091-1.714-6.434-1.714-7.18 0-13 5.82-13 13 0 2.601.772 5.017 2.087 7.049 8.211-3.161 14.635-9.912 17.347-18.335z" fill="#f0fec5"/><path d="m45 20h-40v-8c0-5.523 4.477-10 10-10h20c5.523 0 10 4.477 10 10z" fill="#536d26"/><path d="m32.521 16.739c0-5.377-1.457-10.41-3.987-14.739h-13.534c-5.523 0-10 4.477-10 10v8h27.336c.119-1.071.185-2.158.185-3.261z" fill="#739937"/><path d="m39 20h-28v-7c0-2.761 2.239-5 5-5h18c2.761 0 5 2.239 5 5z" fill="#f5ba5b"/><path d="m32.521 16.739c0-3.044-.466-5.979-1.328-8.739h-15.193c-2.761 0-5 2.239-5 5v7h21.336c.119-1.071.185-2.158.185-3.261z" fill="#f8cf6a"/><path d="m47 62h-44v-4c0-2.209 1.791-4 4-4h36c2.209 0 4 1.791 4 4z" fill="#536d26"/><path d="m45 32h8v-8c0-2.209-1.791-4-4-4h-4z" fill="#536d26"/><path d="m26.679 28-7 10h4l-2 8 8-11h-4z" fill="#d76e31"/><path d="m25 20c0-4.418-3.582-8-8-8 0 4.418 3.582 8 8 8z" fill="#739937"/><path d="m25 20c0-4.418 3.582-8 8-8 0 4.418-3.582 8-8 8z" fill="#536d26"/><g><path d="m53 .999h2v3.999h-2z" fill="#d5cec2"/></g><g><path d="m59 .999h2v3.999h-2z" fill="#d5cec2"/></g></g></svg>