<?xml version="1.0" encoding="iso-8859-1"?>
<!-- Generator: Adobe Illustrator 19.0.0, SVG Export Plug-In . SVG Version: 6.00 Build 0)  -->
<svg version="1.1" id="Layer_1" xmlns="http://www.w3.org/2000/svg" xmlns:xlink="http://www.w3.org/1999/xlink" x="0px" y="0px"
	 viewBox="0 0 512.001 512.001" style="enable-background:new 0 0 512.001 512.001;" xml:space="preserve">
<path style="fill:#607D8B;" d="M503.465,260.518c0,4.708-3.821,8.529-8.529,8.529h-17.057c-4.708,0-8.529,3.821-8.529,8.529
	c-4.537,117.67-103.614,209.378-221.284,204.832c-14.541-0.563-28.98-2.61-43.104-6.115c-21.1-5.39-41.245-14.021-59.701-25.586
	C84.359,413.718,45.963,348.764,42.918,277.575c0-4.708-3.821-8.529-8.529-8.529H17.332c-4.708,0-8.529-3.821-8.529-8.529l0,0
	c0-136.595,110.736-247.331,247.331-247.331S503.465,123.923,503.465,260.518z"/>
<path style="fill:#CFD8DC;" d="M468.839,243.46c0,4.708-3.821,8.529-8.529,8.529h-17.057c-4.708,0-8.529,3.821-8.529,8.529
	C430.187,378.187,331.11,469.896,213.44,465.35c-14.541-0.563-28.98-2.61-43.104-6.115c-8.699-2.311-17.245-5.16-25.586-8.529
	C84.043,413.598,45.852,348.661,42.918,277.575c0-4.708-3.821-8.529-8.529-8.529H17.332c-4.708,0-8.529-3.821-8.529-8.529l0,0
	C13.528,124.008,128.025,17.17,264.543,21.886c28.904,0.998,57.406,7.062,84.22,17.91
	C420.746,82.917,465.956,159.598,468.839,243.46z"/>
<g>
	<path style="fill:#00BCD4;" d="M307.306,473.734c0.043,0.793,0.043,1.595,0,2.388c-33.62,8.213-68.724,8.213-102.344,0
		c-0.043-0.793-0.043-1.595,0-2.388c0-28.264,22.908-51.172,51.172-51.172S307.306,445.478,307.306,473.734z"/>
	<path style="fill:#00BCD4;" d="M441.973,192.288H423.04c-3.181-0.043-6.072-1.851-7.505-4.691
		c-44.963-88.101-152.833-123.077-240.943-78.114c-33.62,17.16-60.954,44.494-78.114,78.114c-1.433,2.84-4.324,4.648-7.505,4.691
		H69.954c-4.708-0.009-8.52-3.838-8.512-8.546c0-1.203,0.256-2.388,0.751-3.48l1.194-2.559
		c50.447-106.403,177.6-151.767,284.004-101.32c44.451,21.074,80.255,56.869,101.329,101.329l1.194,2.559
		c1.936,4.298,0.017,9.347-4.281,11.275C444.481,192.058,443.236,192.314,441.973,192.288z"/>
</g>
<path style="fill:#558B30;" d="M375.535,269.046c0.051,32.11-12.904,62.882-35.906,85.286c-3.062,3.045-6.303,5.893-9.723,8.529
	c-3.548,2.789-7.249,5.382-11.087,7.761l-2.985,1.706c-18.098,10.61-38.72,16.179-59.701,16.119
	c-5.714,0.009-11.411-0.418-17.057-1.279c-15.053-2.081-29.552-7.121-42.643-14.84l-2.985-1.706
	c-3.838-2.379-7.539-4.972-11.087-7.761c-3.42-2.635-6.661-5.484-9.723-8.529c-47.121-46.131-47.922-121.729-1.791-168.85
	c18.328-18.72,42.302-30.891,68.229-34.643c5.654-0.785,11.352-1.185,17.057-1.194C322.078,149.645,375.535,203.103,375.535,269.046
	z"/>
<path style="fill:#8BC34A;" d="M341.421,269.046c0.051,32.11-12.904,62.882-35.906,85.286c-3.062,3.045-6.303,5.893-9.723,8.529
	c-3.548,2.789-7.249,5.382-11.087,7.761l-2.985,1.706c-13.091,7.718-27.59,12.759-42.643,14.84
	c-15.053-2.081-29.552-7.121-42.643-14.84l-2.985-1.706c-3.838-2.379-7.539-4.972-11.087-7.761c-3.42-2.635-6.661-5.484-9.723-8.529
	c-47.121-46.131-47.922-121.729-1.791-168.85c18.328-18.72,42.302-30.891,68.229-34.643c39.598,5.714,73.696,30.882,90.83,67.035
	C337.523,233.857,341.455,251.349,341.421,269.046z"/>
<g>
	<path style="fill:#00BCD4;" d="M260.996,269.046h-9.723c-18.328-7.539-30.652-24.98-31.641-44.775v-14.925h73.09v14.925
		C291.724,244.083,279.358,261.533,260.996,269.046z"/>
	<path style="fill:#00BCD4;" d="M251.273,269.046h9.723c18.328,7.539,30.652,24.98,31.641,44.775v14.925h-73.09v-14.925
		C220.553,294.01,232.911,276.56,251.273,269.046z"/>
</g>
<path d="M417.581,507.848c-4.708,0.034-8.554-3.753-8.597-8.46c-0.026-2.814,1.339-5.45,3.65-7.062
	c34.532-24.494,62.984-56.588,83.154-93.815c2.354-4.145,7.625-5.595,11.77-3.241c4.145,2.354,5.595,7.625,3.241,11.77
	c-21.458,39.402-51.649,73.363-88.271,99.273C421.078,507.328,419.355,507.865,417.581,507.848z"/>
<path d="M384.064,489.171c-4.708-0.213-8.35-4.196-8.136-8.904c0.119-2.601,1.416-5.006,3.531-6.533
	c38.524-23.479,69.67-57.321,89.892-97.653c2.124-4.213,7.258-5.919,11.471-3.795c4.213,2.124,5.919,7.258,3.795,11.471
	c-21.731,43.027-55.087,79.112-96.288,104.135C387.049,488.693,385.573,489.128,384.064,489.171z"/>
<path d="M94.09,507.848c-1.765,0.017-3.497-0.52-4.947-1.535c-36.528-25.944-66.634-59.905-88.016-99.273
	c-2.354-4.145-0.904-9.416,3.241-11.77c4.145-2.354,9.416-0.904,11.77,3.241c20.17,37.228,48.622,69.321,83.154,93.815
	c3.863,2.695,4.819,8.008,2.124,11.872C99.762,506.586,96.998,507.959,94.09,507.848z"/>
<path d="M128.205,489.171c-1.569-0.009-3.104-0.452-4.435-1.279c-41.202-25.023-74.566-61.099-96.288-104.135
	c-2.124-4.264-0.384-9.433,3.881-11.556s9.433-0.384,11.556,3.881c20.128,40.289,51.155,74.122,89.551,97.653
	c3.829,2.738,4.716,8.068,1.979,11.897C132.989,487.669,130.703,488.966,128.205,489.171z"/>
<path d="M256.134,490.791c-119.213,0.085-217.156-94.097-221.745-213.216H17.332c-4.631,0.009-9.066-1.876-12.281-5.202
	c-3.198-3.309-4.912-7.77-4.776-12.367c0-141.311,114.548-255.859,255.859-255.859s255.859,114.548,255.859,255.859
	c0.136,4.554-1.552,8.981-4.691,12.281c-3.224,3.386-7.693,5.296-12.367,5.288h-17.057
	C473.512,396.797,375.441,491.107,256.134,490.791z M34.39,260.518c9.228,0,16.784,7.326,17.057,16.546
	c3.812,91.026,67.095,168.679,155.477,190.786c32.23,7.821,65.85,7.821,98.079,0c88.519-21.978,151.963-99.666,155.818-190.786
	c0.273-9.219,7.829-16.546,17.057-16.546h17.057c0-131.887-106.915-238.802-238.802-238.802S17.332,128.631,17.332,260.518H34.39z"
	/>
<path d="M256.134,490.791c-17.902,0-35.744-2.149-53.133-6.396c-3.488-0.836-6.081-3.77-6.482-7.335
	c-0.094-1.109-0.119-2.217-0.085-3.326c0-32.972,26.729-59.701,59.701-59.701s59.7,26.729,59.7,59.701l0,0
	c0.06,1.109,0.06,2.217,0,3.326c-0.401,3.565-2.994,6.499-6.482,7.335C291.937,488.65,274.07,490.8,256.134,490.791z
	 M213.491,469.384c27.982,5.834,56.878,5.834,84.86,0c-2.354-23.437-23.258-40.52-46.686-38.174
	C231.478,433.24,215.521,449.205,213.491,469.384z"/>
<path d="M441.973,200.817H423.04c-6.371-0.034-12.196-3.625-15.096-9.296c-42.814-83.913-145.55-117.226-229.463-74.412
	c-32.025,16.341-58.072,42.387-74.412,74.412c-2.9,5.672-8.725,9.262-15.096,9.296H69.954c-9.424,0.026-17.083-7.59-17.108-17.006
	c-0.009-2.431,0.503-4.827,1.501-7.045l1.194-2.644c52.4-110.685,184.611-157.942,295.304-105.542
	c46.319,21.927,83.623,59.223,105.55,105.55l1.194,2.644c3.863,8.588,0.026,18.686-8.563,22.55
	C446.809,200.314,444.404,200.826,441.973,200.817z M256.134,64.359c-79.069,0.213-151.025,45.688-185.157,117.013l-1.109,2.388
	h19.104c47.155-92.271,160.185-128.851,252.465-81.687c35.147,17.961,63.726,46.549,81.687,81.687h18.934l-1.109-2.473
	C406.852,110.106,335.058,64.691,256.134,64.359z"/>
<path d="M256.134,396.976c-22.49,0.111-44.596-5.782-64.05-17.057l-3.241-1.876c-4.102-2.618-8.068-5.467-11.855-8.529
	c-3.684-2.849-7.19-5.919-10.49-9.211c-13.083-12.861-23.241-28.392-29.765-45.543c-4.674-11.727-7.548-24.093-8.529-36.673
	c0-2.814,0-5.885,0-9.04c-0.051-18.976,4.171-37.722,12.367-54.839c30.311-63.82,106.617-90.992,170.436-60.69
	c26.618,12.639,48.05,34.072,60.69,60.69c8.196,17.117,12.426,35.863,12.367,54.839c0,3.156,0,6.226,0,9.296
	c-1.006,12.494-3.881,24.776-8.529,36.417c-6.593,17.228-16.836,32.818-30.021,45.714c-3.301,3.292-6.806,6.362-10.49,9.211
	c-3.761,3.053-7.693,5.902-11.77,8.529c-1.109,0.682-2.388,1.45-3.667,2.047C300.287,391.347,278.394,397.121,256.134,396.976z
	 M256.134,158.174c-42.797,0.136-81.747,24.759-100.212,63.368c-7.079,14.831-10.729,31.07-10.661,47.505c0,2.644,0,5.202,0,7.761
	c0.716,10.891,3.079,21.62,6.993,31.812c5.748,14.917,14.644,28.417,26.098,39.573c2.814,2.806,5.799,5.433,8.955,7.846
	c3.335,2.61,6.806,5.032,10.405,7.249l2.303,1.365c34.345,19.667,76.527,19.667,110.872,0l2.729-1.535
	c3.71-2.124,7.301-4.46,10.746-6.993c3.156-2.422,6.141-5.04,8.955-7.846c11.463-11.181,20.366-24.707,26.098-39.658
	c3.906-10.132,6.269-20.801,6.993-31.641c0-2.814,0-5.373,0-8.017c0.068-16.435-3.573-32.673-10.661-47.505
	C337.352,183.078,298.701,158.524,256.134,158.174z"/>
<path d="M256.134,490.791c-4.708,0-8.529-3.821-8.529-8.529v-25.586c0-4.708,3.821-8.529,8.529-8.529
	c4.708,0,8.529,3.821,8.529,8.529v25.586C264.663,486.979,260.851,490.791,256.134,490.791z"/>
<path d="M262.701,277.575h-13.134l-1.535-0.597c-21.569-8.836-36.025-29.415-37.014-52.707v-23.454h90.233v23.454
	c-0.989,23.292-15.445,43.871-37.014,52.707L262.701,277.575z M253.064,260.518h6.226c14.371-6.541,23.957-20.486,24.904-36.247
	v-6.396h-56.118v6.396C229.047,240.057,238.659,254.002,253.064,260.518z"/>
<path d="M307.306,217.874h-14.584c-4.708,0-8.529-3.821-8.529-8.529s3.821-8.529,8.529-8.529h14.584
	c4.708,0,8.529,3.821,8.529,8.529S312.022,217.874,307.306,217.874z"/>
<path d="M301.251,337.275h-90.233v-23.454c0.989-23.292,15.445-43.871,37.014-52.707l1.535-0.597h13.134l1.535,0.597
	c21.569,8.836,36.025,29.415,37.014,52.707V337.275z M228.16,320.218h56.033v-6.396c-0.964-15.778-10.584-29.731-24.989-36.247
	h-6.226c-14.371,6.541-23.957,20.486-24.904,36.247L228.16,320.218z"/>
<path d="M307.306,337.275h-14.584c-4.708,0-8.529-3.821-8.529-8.529s3.821-8.529,8.529-8.529h14.584
	c4.708,0,8.529,3.821,8.529,8.529S312.022,337.275,307.306,337.275z"/>
<path d="M219.546,217.874h-14.584c-4.708,0-8.529-3.821-8.529-8.529s3.821-8.529,8.529-8.529h14.584
	c4.708,0,8.529,3.821,8.529,8.529S224.263,217.874,219.546,217.874z"/>
<path d="M219.546,337.275h-14.584c-4.708,0-8.529-3.821-8.529-8.529s3.821-8.529,8.529-8.529h14.584
	c4.708,0,8.529,3.821,8.529,8.529S224.263,337.275,219.546,337.275z"/>
<g>
</g>
<g>
</g>
<g>
</g>
<g>
</g>
<g>
</g>
<g>
</g>
<g>
</g>
<g>
</g>
<g>
</g>
<g>
</g>
<g>
</g>
<g>
</g>
<g>
</g>
<g>
</g>
<g>
</g>
</svg>
